<svg id="Layer_1" data-name="Layer 1" xmlns="http://www.w3.org/2000/svg" viewBox="0 0 500.01 474.47"><defs><style>.cls-1{fill:#7c797c;}</style></defs><title>DVTA-logo</title><path class="cls-1" d="M498.83,251.57a202.66,202.66,0,0,1-12.21,85.72A212.9,212.9,0,0,1,440,411.36a207.4,207.4,0,0,1-72.72,48.78,192.27,192.27,0,0,1-85.57,13.18,240.79,240.79,0,0,0,82.17-21.13,228.22,228.22,0,0,0,68.22-48.48,234.69,234.69,0,0,0,46.56-69.63C489.93,308.24,496.53,280.28,498.83,251.57Z" transform="translate(0.58 0.57)"/><path class="cls-1" d="M0,221.76a201.73,201.73,0,0,1,12.4-85.95,212.75,212.75,0,0,1,47.08-74.1A208.63,208.63,0,0,1,132.6,13.09,194.37,194.37,0,0,1,218.43,0,243.4,243.4,0,0,0,136,21.06,229.45,229.45,0,0,0,67.34,69.4a234.73,234.73,0,0,0-47,69.65A255.21,255.21,0,0,0,0,221.76Z" transform="translate(0.58 0.57)"/></svg>