<svg id="Layer_1" data-name="Layer 1" xmlns="http://www.w3.org/2000/svg" xmlns:xlink="http://www.w3.org/1999/xlink" viewBox="0 0 472.36 278.83"><defs><style>.cls-1,.cls-2{fill:none;stroke-miterlimit:10;stroke-width:11px;}.cls-1{stroke:url(#linear-gradient);}.cls-2{stroke:url(#linear-gradient-2);}</style><linearGradient id="linear-gradient" x1="403.19" y1="182.93" x2="216.05" y2="290.98" gradientUnits="userSpaceOnUse"><stop offset="0" stop-color="#7c51a0"/><stop offset="1" stop-color="#652d90"/></linearGradient><linearGradient id="linear-gradient-2" x1="340.2" y1="211.1" x2="40.81" y2="383.96" xlink:href="#linear-gradient"/></defs><title>DVTA-logo</title><path class="cls-1" d="M165,198.48,262.21,77.41a12.87,12.87,0,0,1,20.05,0l190,236.44a12.86,12.86,0,0,1-10,20.91H399.13" transform="translate(-8.24 -67.11)"/><path class="cls-2" d="M127.72,176.84,16.61,314.58a12.86,12.86,0,0,0,10.1,20.94l101.89-.72a12.83,12.83,0,0,0,10-4.85l55.5-69.73a12.87,12.87,0,0,1,20.08-.06L275,335.65a12.85,12.85,0,0,0,10,4.79H386.25a12.86,12.86,0,0,0,10.19-20.7l-109.92-143a12.86,12.86,0,0,0-19.87-.63l-52.43,59.92a12.86,12.86,0,0,1-19.74-.46l-46.69-58.69A12.86,12.86,0,0,0,127.72,176.84Z" transform="translate(-8.24 -67.11)"/></svg>